<?xml version="1.0" standalone="no"?>
<!DOCTYPE svg PUBLIC "-//W3C//DTD SVG 20010904//EN"
 "http://www.w3.org/TR/2001/REC-SVG-20010904/DTD/svg10.dtd">
<svg version="1.0" xmlns="http://www.w3.org/2000/svg"
 width="1024.000000pt" height="1024.000000pt" viewBox="0 0 1024.000000 1024.000000"
 preserveAspectRatio="xMidYMid meet">
<metadata>
Created by potrace 1.14, written by Peter Selinger 2001-2017
</metadata>
<g transform="translate(0.000000,1024.000000) scale(0.100000,-0.100000)"
fill="#000000" stroke="none">
<path d="M2959 9726 c-2 -2 -80 -7 -174 -10 -93 -4 -192 -9 -220 -11 -76 -6
-174 -16 -193 -20 -9 -1 -42 -6 -73 -9 -58 -7 -65 -8 -159 -27 -98 -19 -295
-71 -305 -80 -5 -5 -16 -9 -24 -9 -8 0 -39 -12 -70 -26 -380 -173 -648 -398
-858 -720 -60 -92 -145 -250 -158 -294 -4 -14 -18 -47 -30 -75 -34 -71 -92
-280 -110 -395 -3 -19 -8 -46 -10 -60 -5 -24 -10 -57 -20 -130 -4 -34 -15
-140 -21 -210 -15 -179 -19 -693 -19 -2555 0 -1887 4 -2341 19 -2520 15 -166
19 -202 22 -220 2 -10 6 -37 9 -60 27 -192 74 -382 129 -523 20 -50 36 -96 36
-101 0 -5 4 -11 9 -13 5 -2 26 -34 46 -73 109 -204 296 -431 485 -587 193
-159 483 -310 700 -363 209 -51 350 -76 515 -90 39 -4 81 -8 95 -10 110 -16
651 -20 2550 -20 1920 0 2457 4 2535 20 11 2 56 7 101 10 44 3 92 7 105 10 13
2 74 11 134 20 128 19 320 66 420 102 78 28 274 124 316 154 15 10 30 19 33
19 9 0 104 69 186 135 133 107 211 190 364 385 60 77 183 310 229 435 24 65
62 195 72 245 2 12 6 29 9 38 3 9 8 31 11 47 2 17 7 41 10 55 2 13 7 42 10 65
3 22 8 47 10 55 4 18 12 80 20 170 3 36 8 83 10 105 2 22 8 121 12 220 11 237
10 4499 0 4680 -5 77 -10 160 -12 185 -7 107 -31 301 -45 365 -5 22 -11 58
-14 79 -17 110 -72 293 -121 404 -134 304 -343 568 -605 766 -203 153 -412
255 -650 319 -138 37 -307 70 -415 82 -33 3 -73 8 -90 10 -16 2 -70 7 -120 10
-49 4 -115 9 -145 12 -60 6 -4535 14 -4541 9z"/>
</g>
</svg>
